{
  "accessors": [
    {
      "bufferView": 2,
      "componentType": 5126,
      "count": 22466,
      "max": [
        2.0507428646087646,
        2.6546287536621094,
        2.011335611343384
      ],
      "min": [
        -1.924967885017395,
        0.002399913966655731,
        -2.0113351345062256
      ],
      "type": "VEC3"
    },
    {
      "bufferView": 2,
      "byteOffset": 269592,
      "componentType": 5126,
      "count": 22466,
      "max": [
        1.0,
        1.0,
        1.0
      ],
      "min": [
        -1.0,
        -1.0,
        -1.0
      ],
      "type": "VEC3"
    },
    {
      "bufferView": 1,
      "componentType": 5126,
      "count": 22466,
      "max": [
        1.0000003576278687,
        1.0000001192092896
      ],
      "min": [
        -0.040535375475883484,
        0.0
      ],
      "type": "VEC2"
    },
    {
      "bufferView": 0,
      "componentType": 5125,
      "count": 114144,
      "type": "SCALAR"
    },
    {
      "bufferView": 2,
      "byteOffset": 539184,
      "componentType": 5126,
      "count": 798,
      "max": [
        1.1393316984176636,
        1.5419567823410034,
        2.0507402420043945
      ],
      "min": [
        -0.7877798080444336,
        0.5094159245491028,
        -2.0507395267486572
      ],
      "type": "VEC3"
    },
    {
      "bufferView": 2,
      "byteOffset": 548760,
      "componentType": 5126,
      "count": 798,
      "max": [
        0.5555732250213623,
        0.28432008624076843,
        1.0
      ],
      "min": [
        -0.5176650881767273,
        -0.7057652473449707,
        -1.0
      ],
      "type": "VEC3"
    },
    {
      "bufferView": 1,
      "byteOffset": 179728,
      "componentType": 5126,
      "count": 798,
      "max": [
        0.925639808177948,
        0.9525038599967957
      ],
      "min": [
        -0.040535375475883484,
        0.0189459640532732
      ],
      "type": "VEC2"
    },
    {
      "bufferView": 0,
      "byteOffset": 456576,
      "componentType": 5125,
      "count": 3936,
      "type": "SCALAR"
    },
    {
      "bufferView": 2,
      "byteOffset": 558336,
      "componentType": 5126,
      "count": 2162,
      "max": [
        -0.3144063949584961,
        1.9532402753829956,
        1.9520031213760376
      ],
      "min": [
        -2.0067224502563477,
        0.01768207550048828,
        -1.8741002082824707
      ],
      "type": "VEC3"
    },
    {
      "bufferView": 2,
      "byteOffset": 584280,
      "componentType": 5126,
      "count": 2162,
      "max": [
        -0.13980604708194733,
        0.6238242387771606,
        0.956946611404419
      ],
      "min": [
        -1.0,
        -0.9619455337524414,
        -0.956946611404419
      ],
      "type": "VEC3"
    },
    {
      "bufferView": 1,
      "byteOffset": 186112,
      "componentType": 5126,
      "count": 2162,
      "max": [
        1.000000238418579,
        0.6875001788139343
      ],
      "min": [
        0.0,
        0.12499982118606567
      ],
      "type": "VEC2"
    },
    {
      "bufferView": 0,
      "byteOffset": 472320,
      "componentType": 5125,
      "count": 11904,
      "type": "SCALAR"
    }
  ],
  "asset": {
    "extras": {
      "author": "321_Blender (https://sketchfab.com/321_Blender)",
      "license": "CC-BY-4.0 (http://creativecommons.org/licenses/by/4.0/)",
      "source": "https://sketchfab.com/3d-models/juniors-space-helmet-8eb435cca34f4145a2aa607f59fb0a9e",
      "title": "Junior's Space Helmet"
    },
    "generator": "Sketchfab-12.67.0",
    "version": "2.0"
  },
  "bufferViews": [
    {
      "buffer": 0,
      "byteLength": 519936,
      "name": "floatBufferViews",
      "target": 34963
    },
    {
      "buffer": 0,
      "byteLength": 203408,
      "byteOffset": 519936,
      "byteStride": 8,
      "name": "floatBufferViews",
      "target": 34962
    },
    {
      "buffer": 0,
      "byteLength": 610224,
      "byteOffset": 723344,
      "byteStride": 12,
      "name": "floatBufferViews",
      "target": 34962
    }
  ],
  "buffers": [
    {
      "byteLength": 1333568,
      "uri": "scene.bin"
    }
  ],
  "images": [
    {
      "uri": "textures/Material.012_baseColor.png"
    }
  ],
  "materials": [
    {
      "doubleSided": true,
      "name": "Material.001",
      "pbrMetallicRoughness": {
        "metallicFactor": 0.0,
        "roughnessFactor": 0.5
      }
    },
    {
      "doubleSided": true,
      "name": "Material.012",
      "pbrMetallicRoughness": {
        "baseColorTexture": {
          "index": 0
        },
        "metallicFactor": 0.0,
        "roughnessFactor": 0.5
      }
    },
    {
      "alphaMode": "BLEND",
      "doubleSided": true,
      "name": "Material.008",
      "pbrMetallicRoughness": {
        "baseColorFactor": [
          1.0,
          1.0,
          1.0,
          0.5
        ]
      }
    }
  ],
  "meshes": [
    {
      "name": "Object_0",
      "primitives": [
        {
          "attributes": {
            "NORMAL": 1,
            "POSITION": 0,
            "TEXCOORD_0": 2
          },
          "indices": 3,
          "material": 0,
          "mode": 4
        }
      ]
    },
    {
      "name": "Object_1",
      "primitives": [
        {
          "attributes": {
            "NORMAL": 5,
            "POSITION": 4,
            "TEXCOORD_0": 6
          },
          "indices": 7,
          "material": 1,
          "mode": 4
        }
      ]
    },
    {
      "name": "Object_2",
      "primitives": [
        {
          "attributes": {
            "NORMAL": 9,
            "POSITION": 8,
            "TEXCOORD_0": 10
          },
          "indices": 11,
          "material": 2,
          "mode": 4
        }
      ]
    }
  ],
  "nodes": [
    {
      "children": [
        1
      ],
      "matrix": [
        1.0,
        0.0,
        0.0,
        0.0,
        0.0,
        2.220446049250313e-16,
        -1.0,
        0.0,
        0.0,
        1.0,
        2.220446049250313e-16,
        0.0,
        0.0,
        0.0,
        0.0,
        1.0
      ],
      "name": "Sketchfab_model"
    },
    {
      "children": [
        2
      ],
      "name": "root"
    },
    {
      "children": [
        3
      ],
      "matrix": [
        1.0,
        0.0,
        0.0,
        0.0,
        0.0,
        2.220446049250313e-16,
        1.0,
        0.0,
        0.0,
        -1.0,
        2.220446049250313e-16,
        0.0,
        0.0,
        0.0,
        0.0,
        1.0
      ],
      "name": "GLTF_SceneRootNode"
    },
    {
      "children": [
        4,
        5,
        6
      ],
      "matrix": [
        0.9018895030021667,
        0.0,
        0.0,
        0.0,
        0.0,
        1.3532899618148804,
        0.0,
        0.0,
        0.0,
        0.0,
        0.9018895030021667,
        0.0,
        0.0,
        2.3629281520843506,
        0.0,
        1.0
      ],
      "name": "Circle.005_1"
    },
    {
      "mesh": 0,
      "name": "Object_4"
    },
    {
      "mesh": 1,
      "name": "Object_5"
    },
    {
      "mesh": 2,
      "name": "Object_6"
    }
  ],
  "samplers": [
    {
      "magFilter": 9729,
      "minFilter": 9987,
      "wrapS": 10497,
      "wrapT": 10497
    }
  ],
  "scene": 0,
  "scenes": [
    {
      "name": "Sketchfab_Scene",
      "nodes": [
        0
      ]
    }
  ],
  "textures": [
    {
      "sampler": 0,
      "source": 0
    }
  ]
}
